# xmcd
# 
# Track frame offsets:
#     150
#     17099
#     32496
#     49068
#     71790
#     85871
#     99738
#     113868
#     126448
#     141186
#     158996
#     179234
#     194103
# 
# Disc length: 2789
# 
# Revision: 6
# Processed by: cddbd v1.5.2PL0 Copyright (c) Steve Scherf et al.
# Submitted via: fre:ac v1.0.17
# 
DISCID=c40ae30d
DTITLE=Alison Krauss and Union Station - Live [disc 1]
DYEAR=2002
DGENRE=Country
TTITLE0=Let Me Touch You for Awhile
TTITLE1=Choctaw Hayride
TTITLE2=The Lucky One
TTITLE3=Baby, Now That I've Found You
TTITLE4=Bright Sunny South
TTITLE5=Every Time You Say Goodbye
TTITLE6=Tiny Broken Heart
TTITLE7=Cluck Old Hen
TTITLE8=Stay
TTITLE9=Broadway
TTITLE10=Ghost in This House
TTITLE11=Forget About It
TTITLE12=Faraway Land
EXTD=YEAR: 2002 ID3G: 89
EXTT0=
EXTT1=
EXTT2=
EXTT3=
EXTT4=
EXTT5=
EXTT6=
EXTT7=
EXTT8=
EXTT9=
EXTT10=
EXTT11=
EXTT12=
PLAYORDER=
